<svg height="20" width="20" xmlns="http://www.w3.org/2000/svg" viewBox="0 0 460 460"><path d="M369.635 0H90.365C73.595 0 60 13.595 60 30.365v399.27C60 446.405 73.595 460 90.365 460h279.27c16.77 0 30.365-13.595 30.365-30.365V30.365C400 13.595 386.405 0 369.635 0zM108.204 343.61v-43.196a6.248 6.248 0 016.248-6.248h43.196a6.248 6.248 0 016.248 6.248v43.196a6.248 6.248 0 01-6.248 6.248h-43.196a6.248 6.248 0 01-6.248-6.248zm0-87v-43.196a6.248 6.248 0 016.248-6.248h43.196a6.248 6.248 0 016.248 6.248v43.196a6.248 6.248 0 01-6.248 6.248h-43.196a6.248 6.248 0 01-6.248-6.248zM308.891 421H151.109c-11.046 0-20-8.954-20-20s8.954-20 20-20h157.782c11.046 0 20 8.954 20 20s-8.954 20-20 20zM208.402 294.165h43.196a6.248 6.248 0 016.248 6.248v43.196a6.248 6.248 0 01-6.248 6.248h-43.196a6.248 6.248 0 01-6.248-6.248v-43.196a6.248 6.248 0 016.248-6.248zm-6.248-37.555v-43.196a6.248 6.248 0 016.248-6.248h43.196a6.248 6.248 0 016.248 6.248v43.196a6.248 6.248 0 01-6.248 6.248h-43.196a6.248 6.248 0 01-6.248-6.248zm143.394 93.248h-43.196a6.248 6.248 0 01-6.248-6.248v-43.196a6.248 6.248 0 016.248-6.248h43.196a6.248 6.248 0 016.248 6.248v43.196a6.248 6.248 0 01-6.248 6.248zm0-87h-43.196a6.248 6.248 0 01-6.248-6.248v-43.196a6.248 6.248 0 016.248-6.248h43.196a6.248 6.248 0 016.248 6.248v43.196a6.248 6.248 0 01-6.248 6.248zM354 149.637c0 11.799-9.565 21.363-21.363 21.363H127.364C115.565 171 106 161.435 106 149.637V62.363C106 50.565 115.565 41 127.364 41h205.273C344.435 41 354 50.565 354 62.363v87.274z"/></svg>